<svg width="26" height="26" viewBox="0 0 26 26" fill="none" xmlns="http://www.w3.org/2000/svg">
<path d="M8.16559 25.8333C7.53234 25.8333 6.99251 25.6121 6.54608 25.1696C6.09965 24.7271 5.87644 24.1952 5.87644 23.5739C5.87644 22.9525 6.10191 22.4228 6.55284 21.9848C7.00379 21.5467 7.54588 21.3277 8.17911 21.3277C8.81235 21.3277 9.35219 21.5489 9.79861 21.9914C10.245 22.4339 10.4682 22.9658 10.4682 23.5871C10.4682 24.2085 10.2428 24.7382 9.79185 25.1762C9.3409 25.6143 8.79881 25.8333 8.16559 25.8333ZM20.9206 25.8333C20.2874 25.8333 19.7475 25.6121 19.3011 25.1696C18.8547 24.7271 18.6315 24.1952 18.6315 23.5739C18.6315 22.9525 18.8569 22.4228 19.3079 21.9848C19.7588 21.5467 20.3009 21.3277 20.9341 21.3277C21.5674 21.3277 22.1072 21.5489 22.5536 21.9914C23.0001 22.4339 23.2233 22.9658 23.2233 23.5871C23.2233 24.2085 22.9978 24.7382 22.5469 25.1762C22.0959 25.6143 21.5538 25.8333 20.9206 25.8333ZM6.51419 5.1825L10.0218 12.3164H19.2054L23.1914 5.1825H6.51419ZM5.55757 3.30515H24.3417C24.8299 3.30515 25.2013 3.52418 25.456 3.96222C25.7107 4.40027 25.7105 4.83832 25.4554 5.27637L21.1506 12.8796C20.9167 13.2759 20.6132 13.5941 20.2399 13.8339C19.8666 14.0738 19.458 14.1938 19.0141 14.1938H9.35219L7.56648 17.4478H23.2233V19.3252H7.85347C6.96062 19.3252 6.31755 19.0331 5.92427 18.4491C5.53099 17.865 5.53631 17.2079 5.94022 16.4779L7.98102 12.7858L3.13411 2.71066H0.646881V0.833313H4.37773L5.55757 3.30515Z" fill="white"/>
</svg>
