<svg width="26" height="26" viewBox="0 0 26 26" fill="none" xmlns="http://www.w3.org/2000/svg">
<path d="M4.88327 20.0312C6.19759 19.1146 7.50148 18.4115 8.79494 17.9219C10.0884 17.4323 11.4757 17.1875 12.957 17.1875C14.4382 17.1875 15.8307 17.4323 17.1346 17.9219C18.4385 18.4115 19.7476 19.1146 21.062 20.0312C21.9799 18.9062 22.6318 17.7708 23.0178 16.625C23.4037 15.4792 23.5967 14.2708 23.5967 13C23.5967 9.97917 22.5797 7.45312 20.5456 5.42188C18.5115 3.39062 15.982 2.375 12.957 2.375C9.93194 2.375 7.40239 3.39062 5.36832 5.42188C3.33425 7.45312 2.31721 9.97917 2.31721 13C2.31721 14.2708 2.5154 15.4792 2.91178 16.625C3.30817 17.7708 3.96533 18.9062 4.88327 20.0312ZM12.9511 13.9375C11.745 13.9375 10.7299 13.5241 9.90586 12.6973C9.0818 11.8705 8.66977 10.8549 8.66977 9.65044C8.66977 8.44598 9.08374 7.43229 9.91168 6.60938C10.7396 5.78646 11.7567 5.375 12.9628 5.375C14.1689 5.375 15.184 5.7884 16.0081 6.61519C16.8321 7.44198 17.2442 8.4576 17.2442 9.66206C17.2442 10.8665 16.8302 11.8802 16.0023 12.7031C15.1743 13.526 14.1573 13.9375 12.9511 13.9375ZM12.9716 25.5C11.2511 25.5 9.62944 25.1719 8.10649 24.5156C6.58354 23.8594 5.25357 22.9635 4.11658 21.8281C2.97959 20.6927 2.08251 19.367 1.42535 17.8511C0.768186 16.3351 0.439606 14.7153 0.439606 12.9917C0.439606 11.2681 0.768186 9.65104 1.42535 8.14062C2.08251 6.63021 2.97959 5.30729 4.11658 4.17188C5.25357 3.03646 6.5811 2.14062 8.09917 1.48438C9.61723 0.828125 11.2393 0.5 12.9653 0.5C14.6913 0.5 16.3106 0.828125 17.8231 1.48438C19.3356 2.14062 20.6604 3.03646 21.7974 4.17188C22.9343 5.30729 23.8314 6.63054 24.4886 8.14163C25.1457 9.65271 25.4743 11.2673 25.4743 12.9854C25.4743 14.7035 25.1457 16.3229 24.4886 17.8438C23.8314 19.3646 22.9343 20.6927 21.7974 21.8281C20.6604 22.9635 19.3353 23.8594 17.8221 24.5156C16.3089 25.1719 14.6921 25.5 12.9716 25.5ZM12.957 23.625C14.1044 23.625 15.2257 23.4583 16.321 23.125C17.4163 22.7917 18.4959 22.2083 19.5599 21.375C18.4959 20.625 17.4111 20.0521 16.3054 19.6562C15.1997 19.2604 14.0835 19.0625 12.957 19.0625C11.8304 19.0625 10.7143 19.2604 9.60857 19.6562C8.50287 20.0521 7.41803 20.625 6.35406 21.375C7.41803 22.2083 8.49766 22.7917 9.59293 23.125C10.6882 23.4583 11.8095 23.625 12.957 23.625ZM12.957 12.0625C13.6663 12.0625 14.2452 11.8385 14.6938 11.3906C15.1423 10.9427 15.3666 10.3646 15.3666 9.65625C15.3666 8.94792 15.1423 8.36979 14.6938 7.92188C14.2452 7.47396 13.6663 7.25 12.957 7.25C12.2476 7.25 11.6687 7.47396 11.2202 7.92188C10.7716 8.36979 10.5474 8.94792 10.5474 9.65625C10.5474 10.3646 10.7716 10.9427 11.2202 11.3906C11.6687 11.8385 12.2476 12.0625 12.957 12.0625Z" fill="white"/>
</svg>
